#N canvas 62 35 1324 673 12;
#X floatatom 861 694 5 0 0 0 - - - 0;
#X obj 863 721 * 0.075;
#X obj 863 754 s LFO;
#X msg 589 390 36;
#X obj 583 437 s note1;
#X obj 645 434 s note2;
#X obj 710 436 s note3;
#X obj 768 435 s note4;
#X obj 834 435 s note5;
#X obj 896 431 s note6;
#X obj 397 419 hip~ 600;
#X obj 383 464 delwrite~ delBuff 900;
#X obj 541 521 delread~ delBuff 900;
#X obj 541 565 *~ 0.9;
#X obj 535 604 lop~ 4000;
#X obj 285 455 dac~;
#X text 916 631 generate random number from -1 to 1;
#N canvas 708 232 531 570 note1 0;
#X obj 40 69 r LFO;
#X obj 40 159 +;
#X obj 57 95 r note1;
#X floatatom 57 126 5 0 0 0 - - - 0;
#X floatatom 40 191 5 0 0 0 - - - 0;
#X obj 41 219 mtof;
#X floatatom 40 245 5 0 0 0 - - - 0;
#X obj 40 274 phasor~;
#X obj 40 306 lop~ 6000;
#X obj 209 154 metro 10000;
#X obj 282 54 random 30000;
#X obj 282 83 + 10000;
#X floatatom 282 112 5 0 0 0 - - - 0;
#X obj 211 191 bng 15 250 50 0 empty empty empty 17 7 0 10 #fcfcfc
#000000 #000000;
#X msg 212 230 1 300;
#X obj 287 215 delay 2000;
#X msg 288 249 0 700;
#X obj 95 377 *~;
#X obj 95 414 *~ 0.1;
#X obj 376 138 random 3000;
#X obj 376 166 + 1000;
#X obj 94 457 outlet~;
#X obj 217 290 line~ 0 3;
#X obj 189 62 r initialize;
#X msg 223 99 stop;
#X obj 138 96 r start;
#X obj 142 126 bng 15 250 50 0 empty empty empty 17 7 0 10 #fcfcfc
#000000 #000000;
#X obj 283 23 r initialize;
#X obj 376 97 r initialize;
#X connect 0 0 1 0;
#X connect 1 0 4 0;
#X connect 2 0 3 0;
#X connect 3 0 1 1;
#X connect 4 0 5 0;
#X connect 5 0 6 0;
#X connect 6 0 7 0;
#X connect 7 0 8 0;
#X connect 8 0 17 0;
#X connect 9 0 13 0;
#X connect 10 0 11 0;
#X connect 11 0 12 0;
#X connect 12 0 9 1;
#X connect 13 0 14 0;
#X connect 13 0 15 0;
#X connect 14 0 22 0;
#X connect 15 0 16 0;
#X connect 16 0 22 0;
#X connect 17 0 18 0;
#X connect 18 0 21 0;
#X connect 19 0 20 0;
#X connect 20 0 15 1;
#X connect 22 0 17 1;
#X connect 23 0 24 0;
#X connect 24 0 9 0;
#X connect 25 0 26 0;
#X connect 26 0 9 0;
#X connect 27 0 10 0;
#X connect 28 0 19 0;
#X restore 83 123 pd note1;
#N canvas 515 129 562 500 note2 0;
#X obj 88 67 r LFO;
#X obj 88 157 +;
#X floatatom 105 124 5 0 0 0 - - - 0;
#X floatatom 88 189 5 0 0 0 - - - 0;
#X obj 89 217 mtof;
#X floatatom 88 243 5 0 0 0 - - - 0;
#X obj 88 272 phasor~;
#X obj 88 304 lop~ 6000;
#X obj 209 154 metro 10000;
#X obj 282 54 random 30000;
#X obj 282 83 + 10000;
#X floatatom 282 112 5 0 0 0 - - - 0;
#X obj 211 191 bng 15 250 50 0 empty empty empty 17 7 0 10 #fcfcfc
#000000 #000000;
#X msg 212 230 1 300;
#X obj 287 215 delay 2000;
#X msg 288 249 0 700;
#X obj 95 377 *~;
#X obj 95 414 *~ 0.1;
#X obj 376 138 random 3000;
#X obj 376 166 + 1000;
#X obj 105 93 r note2;
#X obj 93 451 outlet~;
#X obj 217 290 line~ 0 3;
#X obj 189 62 r initialize;
#X msg 223 99 stop;
#X obj 156 105 r start;
#X obj 160 135 bng 15 250 50 0 empty empty empty 17 7 0 10 #fcfcfc
#000000 #000000;
#X obj 378 99 r initialize;
#X obj 283 23 r initialize;
#X connect 0 0 1 0;
#X connect 1 0 3 0;
#X connect 2 0 1 1;
#X connect 3 0 4 0;
#X connect 4 0 5 0;
#X connect 5 0 6 0;
#X connect 6 0 7 0;
#X connect 7 0 16 0;
#X connect 8 0 12 0;
#X connect 9 0 10 0;
#X connect 10 0 11 0;
#X connect 11 0 8 1;
#X connect 12 0 13 0;
#X connect 12 0 14 0;
#X connect 13 0 22 0;
#X connect 14 0 15 0;
#X connect 15 0 22 0;
#X connect 16 0 17 0;
#X connect 17 0 21 0;
#X connect 18 0 19 0;
#X connect 19 0 14 1;
#X connect 20 0 2 0;
#X connect 22 0 16 1;
#X connect 23 0 24 0;
#X connect 24 0 8 0;
#X connect 25 0 26 0;
#X connect 26 0 8 0;
#X connect 27 0 18 0;
#X connect 28 0 9 0;
#X restore 173 121 pd note2;
#N canvas 631 206 499 510 note3 0;
#X obj 89 67 r LFO;
#X obj 89 157 +;
#X floatatom 106 124 5 0 0 0 - - - 0;
#X floatatom 89 189 5 0 0 0 - - - 0;
#X obj 90 217 mtof;
#X floatatom 89 243 5 0 0 0 - - - 0;
#X obj 89 272 phasor~;
#X obj 89 304 lop~ 6000;
#X obj 210 154 metro 10000;
#X obj 283 54 random 30000;
#X obj 283 83 + 10000;
#X floatatom 283 112 5 0 0 0 - - - 0;
#X obj 212 191 bng 15 250 50 0 empty empty empty 17 7 0 10 #fcfcfc
#000000 #000000;
#X msg 213 230 1 300;
#X obj 288 215 delay 2000;
#X msg 289 249 0 700;
#X obj 96 377 *~;
#X obj 96 414 *~ 0.1;
#X obj 377 138 random 3000;
#X obj 377 166 + 1000;
#X obj 106 93 r note3;
#X obj 94 451 outlet~;
#X obj 218 290 line~ 0 3;
#X obj 189 62 r initialize;
#X msg 223 99 stop;
#X obj 162 107 r start;
#X obj 166 137 bng 15 250 50 0 empty empty empty 17 7 0 10 #fcfcfc
#000000 #000000;
#X obj 283 23 r initialize;
#X obj 373 94 r initialize;
#X connect 0 0 1 0;
#X connect 1 0 3 0;
#X connect 2 0 1 1;
#X connect 3 0 4 0;
#X connect 4 0 5 0;
#X connect 5 0 6 0;
#X connect 6 0 7 0;
#X connect 7 0 16 0;
#X connect 8 0 12 0;
#X connect 9 0 10 0;
#X connect 10 0 11 0;
#X connect 11 0 8 1;
#X connect 12 0 13 0;
#X connect 12 0 14 0;
#X connect 13 0 22 0;
#X connect 14 0 15 0;
#X connect 15 0 22 0;
#X connect 16 0 17 0;
#X connect 17 0 21 0;
#X connect 18 0 19 0;
#X connect 19 0 14 1;
#X connect 20 0 2 0;
#X connect 22 0 16 1;
#X connect 23 0 24 0;
#X connect 24 0 8 0;
#X connect 25 0 26 0;
#X connect 26 0 8 0;
#X connect 27 0 9 0;
#X connect 28 0 18 0;
#X restore 261 120 pd note3;
#N canvas 580 262 493 510 note4 0;
#X obj 89 67 r LFO;
#X obj 89 157 +;
#X floatatom 106 124 5 0 0 0 - - - 0;
#X floatatom 89 189 5 0 0 0 - - - 0;
#X obj 90 217 mtof;
#X floatatom 89 243 5 0 0 0 - - - 0;
#X obj 89 272 phasor~;
#X obj 89 304 lop~ 6000;
#X obj 210 154 metro 10000;
#X obj 283 54 random 30000;
#X obj 283 83 + 10000;
#X floatatom 283 112 5 0 0 0 - - - 0;
#X obj 212 191 bng 15 250 50 0 empty empty empty 17 7 0 10 #fcfcfc
#000000 #000000;
#X msg 213 230 1 300;
#X obj 288 215 delay 2000;
#X msg 289 249 0 700;
#X obj 96 377 *~;
#X obj 96 414 *~ 0.1;
#X obj 377 138 random 3000;
#X obj 377 166 + 1000;
#X obj 94 451 outlet~;
#X obj 106 93 r note4;
#X obj 218 290 line~ 0 3;
#X obj 189 62 r initialize;
#X msg 223 99 stop;
#X obj 163 112 r start;
#X obj 167 142 bng 15 250 50 0 empty empty empty 17 7 0 10 #fcfcfc
#000000 #000000;
#X obj 283 23 r initialize;
#X obj 377 96 r initialize;
#X connect 0 0 1 0;
#X connect 1 0 3 0;
#X connect 2 0 1 1;
#X connect 3 0 4 0;
#X connect 4 0 5 0;
#X connect 5 0 6 0;
#X connect 6 0 7 0;
#X connect 7 0 16 0;
#X connect 8 0 12 0;
#X connect 9 0 10 0;
#X connect 10 0 11 0;
#X connect 11 0 8 1;
#X connect 12 0 13 0;
#X connect 12 0 14 0;
#X connect 13 0 22 0;
#X connect 14 0 15 0;
#X connect 15 0 22 0;
#X connect 16 0 17 0;
#X connect 17 0 20 0;
#X connect 18 0 19 0;
#X connect 19 0 14 1;
#X connect 21 0 2 0;
#X connect 22 0 16 1;
#X connect 23 0 24 0;
#X connect 24 0 8 0;
#X connect 25 0 26 0;
#X connect 26 0 8 0;
#X connect 27 0 9 0;
#X connect 28 0 18 0;
#X restore 344 123 pd note4;
#N canvas 539 148 485 501 note5 0;
#X obj 89 67 r LFO;
#X obj 89 157 +;
#X floatatom 106 124 5 0 0 0 - - - 0;
#X floatatom 89 189 5 0 0 0 - - - 0;
#X obj 90 217 mtof;
#X floatatom 89 243 5 0 0 0 - - - 0;
#X obj 89 272 phasor~;
#X obj 89 304 lop~ 6000;
#X obj 210 154 metro 10000;
#X obj 283 54 random 30000;
#X obj 283 83 + 10000;
#X floatatom 283 112 5 0 0 0 - - - 0;
#X obj 212 191 bng 15 250 50 0 empty empty empty 17 7 0 10 #fcfcfc
#000000 #000000;
#X msg 213 230 1 300;
#X obj 288 215 delay 2000;
#X msg 289 249 0 700;
#X obj 96 377 *~;
#X obj 96 414 *~ 0.1;
#X obj 377 138 random 3000;
#X obj 377 166 + 1000;
#X obj 94 451 outlet~;
#X obj 106 93 r note5;
#X obj 218 290 line~ 0 3;
#X obj 189 62 r initialize;
#X msg 223 99 stop;
#X obj 157 115 r start;
#X obj 161 145 bng 15 250 50 0 empty empty empty 17 7 0 10 #fcfcfc
#000000 #000000;
#X obj 283 23 r initialize;
#X obj 376 102 r initialize;
#X connect 0 0 1 0;
#X connect 1 0 3 0;
#X connect 2 0 1 1;
#X connect 3 0 4 0;
#X connect 4 0 5 0;
#X connect 5 0 6 0;
#X connect 6 0 7 0;
#X connect 7 0 16 0;
#X connect 8 0 12 0;
#X connect 9 0 10 0;
#X connect 10 0 11 0;
#X connect 11 0 8 1;
#X connect 12 0 13 0;
#X connect 12 0 14 0;
#X connect 13 0 22 0;
#X connect 14 0 15 0;
#X connect 15 0 22 0;
#X connect 16 0 17 0;
#X connect 17 0 20 0;
#X connect 18 0 19 0;
#X connect 19 0 14 1;
#X connect 21 0 2 0;
#X connect 22 0 16 1;
#X connect 23 0 24 0;
#X connect 24 0 8 0;
#X connect 25 0 26 0;
#X connect 26 0 8 0;
#X connect 27 0 9 0;
#X connect 28 0 18 0;
#X restore 434 120 pd note5;
#N canvas 620 88 478 515 note6 0;
#X obj 89 67 r LFO;
#X obj 89 157 +;
#X floatatom 106 124 5 0 0 0 - - - 0;
#X floatatom 89 189 5 0 0 0 - - - 0;
#X obj 90 217 mtof;
#X floatatom 89 243 5 0 0 0 - - - 0;
#X obj 89 272 phasor~;
#X obj 89 304 lop~ 6000;
#X obj 210 154 metro 10000;
#X obj 283 54 random 30000;
#X obj 283 83 + 10000;
#X floatatom 283 112 5 0 0 0 - - - 0;
#X obj 212 191 bng 15 250 50 0 empty empty empty 17 7 0 10 #fcfcfc
#000000 #000000;
#X msg 213 230 1 300;
#X obj 288 215 delay 2000;
#X msg 289 249 0 700;
#X obj 96 377 *~;
#X obj 96 414 *~ 0.1;
#X obj 377 138 random 3000;
#X obj 377 166 + 1000;
#X obj 94 451 outlet~;
#X obj 106 93 r note6;
#X obj 218 290 line~ 0 3;
#X obj 189 62 r initialize;
#X msg 223 99 stop;
#X obj 158 115 r start;
#X obj 162 145 bng 15 250 50 0 empty empty empty 17 7 0 10 #fcfcfc
#000000 #000000;
#X obj 283 23 r initialize;
#X obj 379 102 r initialize;
#X connect 0 0 1 0;
#X connect 1 0 3 0;
#X connect 2 0 1 1;
#X connect 3 0 4 0;
#X connect 4 0 5 0;
#X connect 5 0 6 0;
#X connect 6 0 7 0;
#X connect 7 0 16 0;
#X connect 8 0 12 0;
#X connect 9 0 10 0;
#X connect 10 0 11 0;
#X connect 11 0 8 1;
#X connect 12 0 13 0;
#X connect 12 0 14 0;
#X connect 13 0 22 0;
#X connect 14 0 15 0;
#X connect 15 0 22 0;
#X connect 16 0 17 0;
#X connect 17 0 20 0;
#X connect 18 0 19 0;
#X connect 19 0 14 1;
#X connect 21 0 2 0;
#X connect 22 0 16 1;
#X connect 23 0 24 0;
#X connect 24 0 8 0;
#X connect 25 0 26 0;
#X connect 26 0 8 0;
#X connect 27 0 9 0;
#X connect 28 0 18 0;
#X restore 526 124 pd note6;
#X obj 857 564 metro 3;
#X obj 861 594 random 2000;
#X msg 644 391 60;
#X msg 711 391 64;
#X msg 770 391 67;
#X obj 863 623 - 1000;
#X obj 861 654 / 1000;
#X msg 835 388 72;
#X msg 898 383 76;
#X text 608 225 Default chord: C major (warm);
#X msg 973 393 36;
#X obj 965 436 s note1;
#X obj 1027 433 s note2;
#X obj 1092 435 s note3;
#X obj 1150 434 s note4;
#X obj 1216 434 s note5;
#X obj 1281 437 s note6;
#X msg 1031 389 60;
#X msg 1152 390 67;
#X obj 1087 332 bng 15 250 50 0 empty empty empty 17 7 0 10 #fcfcfc
#000000 #000000;
#X msg 1093 390 63;
#X msg 1217 387 70;
#X msg 1283 389 74;
#X text 1012 225 Default chord: Cminor9 (cold);
#X text 227 83 Background ambient music;
#X obj 261 740 r pattern1;
#X obj 440 728 r pattern2;
#X obj 262 799 select 0 1;
#X obj 434 805 select 0 1;
#X obj 191 856 bng 15 250 50 0 empty empty empty 17 7 0 10 #fcfcfc
#000000 #000000;
#X obj 266 848 bng 15 250 50 0 empty empty empty 17 7 0 10 #fcfcfc
#000000 #000000;
#N canvas 701 186 614 471 pattern1-2 0;
#X obj 185 58 inlet;
#X obj 215 517 outlet~;
#X obj 198 105 metro 300;
#X obj 201 133 bng 15 250 50 0 empty empty empty 17 7 0 10 #fcfcfc
#000000 #000000;
#X obj 198 166 f;
#X msg 339 101 -1;
#X obj 198 190 + 1;
#X floatatom 198 217 5 0 0 0 - - - 0;
#X floatatom 197 276 5 0 0 0 - - - 0;
#X obj 186 351 bng 15 250 50 0 empty empty empty 17 7 0 10 #fcfcfc
#000000 #000000;
#X obj 206 351 bng 15 250 50 0 empty empty empty 17 7 0 10 #fcfcfc
#000000 #000000;
#X obj 227 351 bng 15 250 50 0 empty empty empty 17 7 0 10 #fcfcfc
#000000 #000000;
#X obj 249 351 bng 15 250 50 0 empty empty empty 17 7 0 10 #fcfcfc
#000000 #000000;
#X obj 198 246 % 8;
#X obj 196 308 sel 0 1 2 3 4 5 6 7;
#X floatatom 158 418 5 0 0 0 - - - 0;
#X floatatom 214 420 5 0 0 0 - - - 0;
#X floatatom 283 421 5 0 0 0 - - - 0;
#X floatatom 342 422 5 0 0 0 - - - 0;
#X floatatom 396 424 5 0 0 0 - - - 0;
#X obj 75 348 r note2;
#X obj 291 349 r note3;
#X obj 355 352 r note4;
#X obj 420 347 r note5;
#X obj 479 349 r note6;
#N canvas 734 111 643 491 instrument 0;
#X obj 131 427 *~;
#X obj 123 512 outlet~;
#X obj 114 167 mtof;
#X obj 241 224 int;
#X floatatom 272 166 5 0 0 0 - - - 0;
#X obj 194 377 line~;
#X obj 225 263 pack 0 0;
#X obj 205 192 t i b;
#X msg 217 322 0 \, \$1 \$2;
#X obj 299 224 delay;
#X obj 316 252 int;
#X floatatom 340 184 5 0 0 0 - - - 0;
#X floatatom 395 190 5 0 0 0 - - - 0;
#X obj 319 279 pack 0 0;
#X msg 310 320 \$2 \$1;
#X floatatom 469 184 5 0 0 0 - - - 0;
#X obj 440 277 int;
#X obj 442 185 bng 15 250 50 0 empty empty empty 17 7 0 10 #fcfcfc
#000000 #000000;
#X msg 439 321 0 \$1;
#X obj 117 245 phasor~;
#X floatatom 51 221 5 0 0 0 - - - 0;
#X obj 258 75 loadbang;
#X obj 406 73 loadbang;
#X obj 328 73 loadbang;
#X obj 491 71 loadbang;
#X msg 213 144 1;
#X msg 405 105 0.2;
#X obj 292 413 print;
#X msg 257 107 50;
#X msg 327 105 100;
#X obj 409 35 delay 300;
#X msg 490 103 50;
#X obj 123 78 inlet;
#X obj 124 473 *~ 0.1;
#X connect 0 0 33 0;
#X connect 2 0 19 0;
#X connect 2 0 19 1;
#X connect 2 0 20 0;
#X connect 3 0 6 1;
#X connect 4 0 3 1;
#X connect 4 0 9 1;
#X connect 5 0 0 1;
#X connect 6 0 8 0;
#X connect 7 0 6 0;
#X connect 7 1 3 0;
#X connect 7 1 9 0;
#X connect 7 1 30 0;
#X connect 8 0 5 0;
#X connect 8 0 27 0;
#X connect 9 0 10 0;
#X connect 10 0 13 0;
#X connect 11 0 10 1;
#X connect 12 0 13 1;
#X connect 13 0 14 0;
#X connect 14 0 5 0;
#X connect 14 0 27 0;
#X connect 15 0 16 1;
#X connect 16 0 18 0;
#X connect 17 0 16 0;
#X connect 18 0 5 0;
#X connect 18 0 27 0;
#X connect 19 0 0 0;
#X connect 21 0 28 0;
#X connect 22 0 26 0;
#X connect 23 0 29 0;
#X connect 24 0 31 0;
#X connect 25 0 7 0;
#X connect 26 0 12 0;
#X connect 28 0 4 0;
#X connect 29 0 11 0;
#X connect 30 0 17 0;
#X connect 31 0 15 0;
#X connect 32 0 2 0;
#X connect 32 0 25 0;
#X connect 33 0 1 0;
#X restore 216 480 pd instrument;
#X msg 298 70 stop;
#X obj 351 23 r initialize;
#X connect 0 0 2 0;
#X connect 2 0 3 0;
#X connect 3 0 4 0;
#X connect 4 0 6 0;
#X connect 5 0 4 1;
#X connect 6 0 7 0;
#X connect 6 0 4 1;
#X connect 7 0 13 0;
#X connect 8 0 14 0;
#X connect 9 0 17 0;
#X connect 10 0 19 0;
#X connect 12 0 18 0;
#X connect 13 0 8 0;
#X connect 14 0 9 0;
#X connect 14 1 10 0;
#X connect 14 2 11 0;
#X connect 14 3 12 0;
#X connect 15 0 25 0;
#X connect 16 0 25 0;
#X connect 17 0 25 0;
#X connect 18 0 25 0;
#X connect 19 0 25 0;
#X connect 20 0 15 0;
#X connect 21 0 16 0;
#X connect 22 0 17 0;
#X connect 23 0 18 0;
#X connect 24 0 19 0;
#X connect 25 0 1 0;
#X connect 26 0 2 0;
#X connect 27 0 26 0;
#X connect 27 0 5 0;
#X restore 257 936 pd pattern1-2;
#N canvas 8 55 674 468 pattern2-1 0;
#X obj 203 50 inlet;
#X obj 223 516 outlet~;
#X obj 201 133 bng 15 250 50 0 empty empty empty 17 7 0 10 #fcfcfc
#000000 #000000;
#X obj 198 166 f;
#X obj 198 190 + 1;
#X floatatom 198 217 5 0 0 0 - - - 0;
#X floatatom 197 276 5 0 0 0 - - - 0;
#X obj 186 351 bng 15 250 50 0 empty empty empty 17 7 0 10 #fcfcfc
#000000 #000000;
#X obj 206 351 bng 15 250 50 0 empty empty empty 17 7 0 10 #fcfcfc
#000000 #000000;
#X obj 227 351 bng 15 250 50 0 empty empty empty 17 7 0 10 #fcfcfc
#000000 #000000;
#X obj 249 351 bng 15 250 50 0 empty empty empty 17 7 0 10 #fcfcfc
#000000 #000000;
#X obj 198 246 % 8;
#X obj 196 308 sel 0 1 2 3 4 5 6 7;
#X floatatom 158 418 5 0 0 0 - - - 0;
#X floatatom 214 420 5 0 0 0 - - - 0;
#X floatatom 283 421 5 0 0 0 - - - 0;
#X floatatom 342 422 5 0 0 0 - - - 0;
#X floatatom 396 424 5 0 0 0 - - - 0;
#X obj 75 348 r note2;
#X obj 291 349 r note3;
#X obj 355 352 r note4;
#X obj 420 347 r note5;
#X obj 479 349 r note6;
#X obj 201 98 metro 300;
#N canvas 797 139 587 547 instrument 0;
#X obj 131 427 *~;
#X obj 123 512 outlet~;
#X obj 114 167 mtof;
#X obj 241 224 int;
#X floatatom 272 166 5 0 0 0 - - - 0;
#X obj 194 377 line~;
#X obj 225 263 pack 0 0;
#X obj 205 192 t i b;
#X msg 217 322 0 \, \$1 \$2;
#X obj 299 224 delay;
#X obj 316 252 int;
#X floatatom 340 184 5 0 0 0 - - - 0;
#X floatatom 395 190 5 0 0 0 - - - 0;
#X obj 319 279 pack 0 0;
#X msg 310 320 \$2 \$1;
#X floatatom 469 184 5 0 0 0 - - - 0;
#X obj 440 277 int;
#X obj 442 185 bng 15 250 50 0 empty empty empty 17 7 0 10 #fcfcfc
#000000 #000000;
#X msg 439 321 0 \$1;
#X obj 117 245 phasor~;
#X floatatom 51 221 5 0 0 0 - - - 0;
#X obj 258 75 loadbang;
#X obj 406 73 loadbang;
#X obj 328 73 loadbang;
#X obj 491 71 loadbang;
#X msg 213 144 1;
#X msg 405 105 0.2;
#X obj 292 413 print;
#X msg 257 107 50;
#X msg 327 105 100;
#X obj 409 35 delay 300;
#X msg 490 103 50;
#X obj 123 78 inlet;
#X obj 124 473 *~ 0.1;
#X connect 0 0 33 0;
#X connect 2 0 19 0;
#X connect 2 0 19 1;
#X connect 2 0 20 0;
#X connect 3 0 6 1;
#X connect 4 0 3 1;
#X connect 4 0 9 1;
#X connect 5 0 0 1;
#X connect 6 0 8 0;
#X connect 7 0 6 0;
#X connect 7 1 3 0;
#X connect 7 1 9 0;
#X connect 7 1 30 0;
#X connect 8 0 5 0;
#X connect 8 0 27 0;
#X connect 9 0 10 0;
#X connect 10 0 13 0;
#X connect 11 0 10 1;
#X connect 12 0 13 1;
#X connect 13 0 14 0;
#X connect 14 0 5 0;
#X connect 14 0 27 0;
#X connect 15 0 16 1;
#X connect 16 0 18 0;
#X connect 17 0 16 0;
#X connect 18 0 5 0;
#X connect 18 0 27 0;
#X connect 19 0 0 0;
#X connect 21 0 28 0;
#X connect 22 0 26 0;
#X connect 23 0 29 0;
#X connect 24 0 31 0;
#X connect 25 0 7 0;
#X connect 26 0 12 0;
#X connect 28 0 4 0;
#X connect 29 0 11 0;
#X connect 30 0 17 0;
#X connect 31 0 15 0;
#X connect 32 0 2 0;
#X connect 32 0 25 0;
#X connect 33 0 1 0;
#X restore 223 481 pd instrument;
#X msg 339 101 -1;
#X msg 298 70 stop;
#X obj 351 23 r initialize;
#X connect 0 0 23 0;
#X connect 2 0 3 0;
#X connect 3 0 4 0;
#X connect 4 0 5 0;
#X connect 4 0 3 1;
#X connect 5 0 11 0;
#X connect 6 0 12 0;
#X connect 8 0 14 0;
#X connect 9 0 17 0;
#X connect 11 0 6 0;
#X connect 12 4 7 0;
#X connect 12 5 8 0;
#X connect 12 6 9 0;
#X connect 12 7 10 0;
#X connect 13 0 24 0;
#X connect 14 0 24 0;
#X connect 15 0 24 0;
#X connect 16 0 24 0;
#X connect 17 0 24 0;
#X connect 18 0 13 0;
#X connect 19 0 14 0;
#X connect 20 0 15 0;
#X connect 21 0 16 0;
#X connect 22 0 17 0;
#X connect 23 0 2 0;
#X connect 24 0 1 0;
#X connect 25 0 3 1;
#X connect 26 0 23 0;
#X connect 27 0 26 0;
#X connect 27 0 25 0;
#X restore 392 936 pd pattern2-1;
#N canvas 226 41 730 566 pattern2-2 0;
#X obj 203 50 inlet;
#X obj 223 516 outlet~;
#X obj 201 133 bng 15 250 50 0 empty empty empty 17 7 0 10 #fcfcfc
#000000 #000000;
#X obj 198 166 f;
#X obj 198 190 + 1;
#X floatatom 198 217 5 0 0 0 - - - 0;
#X floatatom 197 276 5 0 0 0 - - - 0;
#X obj 186 351 bng 15 250 50 0 empty empty empty 17 7 0 10 #fcfcfc
#000000 #000000;
#X obj 206 351 bng 15 250 50 0 empty empty empty 17 7 0 10 #fcfcfc
#000000 #000000;
#X obj 227 351 bng 15 250 50 0 empty empty empty 17 7 0 10 #fcfcfc
#000000 #000000;
#X obj 249 351 bng 15 250 50 0 empty empty empty 17 7 0 10 #fcfcfc
#000000 #000000;
#X obj 198 246 % 8;
#X obj 196 308 sel 0 1 2 3 4 5 6 7;
#X floatatom 158 418 5 0 0 0 - - - 0;
#X floatatom 214 420 5 0 0 0 - - - 0;
#X floatatom 283 421 5 0 0 0 - - - 0;
#X floatatom 342 422 5 0 0 0 - - - 0;
#X floatatom 396 424 5 0 0 0 - - - 0;
#X obj 75 348 r note2;
#X obj 291 349 r note3;
#X obj 355 352 r note4;
#X obj 420 347 r note5;
#X obj 479 349 r note6;
#X obj 201 98 metro 300;
#N canvas 797 139 587 547 instrument 0;
#X obj 131 427 *~;
#X obj 123 512 outlet~;
#X obj 114 167 mtof;
#X obj 241 224 int;
#X floatatom 272 166 5 0 0 0 - - - 0;
#X obj 194 377 line~;
#X obj 225 263 pack 0 0;
#X obj 205 192 t i b;
#X msg 217 322 0 \, \$1 \$2;
#X obj 299 224 delay;
#X obj 316 252 int;
#X floatatom 340 184 5 0 0 0 - - - 0;
#X floatatom 395 190 5 0 0 0 - - - 0;
#X obj 319 279 pack 0 0;
#X msg 310 320 \$2 \$1;
#X floatatom 469 184 5 0 0 0 - - - 0;
#X obj 440 277 int;
#X obj 442 185 bng 15 250 50 0 empty empty empty 17 7 0 10 #fcfcfc
#000000 #000000;
#X msg 439 321 0 \$1;
#X obj 117 245 phasor~;
#X floatatom 51 221 5 0 0 0 - - - 0;
#X obj 258 75 loadbang;
#X obj 406 73 loadbang;
#X obj 328 73 loadbang;
#X obj 491 71 loadbang;
#X msg 213 144 1;
#X msg 405 105 0.2;
#X obj 292 413 print;
#X msg 257 107 50;
#X msg 327 105 100;
#X obj 409 35 delay 300;
#X msg 490 103 50;
#X obj 123 78 inlet;
#X obj 124 473 *~ 0.1;
#X connect 0 0 33 0;
#X connect 2 0 19 0;
#X connect 2 0 19 1;
#X connect 2 0 20 0;
#X connect 3 0 6 1;
#X connect 4 0 3 1;
#X connect 4 0 9 1;
#X connect 5 0 0 1;
#X connect 6 0 8 0;
#X connect 7 0 6 0;
#X connect 7 1 3 0;
#X connect 7 1 9 0;
#X connect 7 1 30 0;
#X connect 8 0 5 0;
#X connect 8 0 27 0;
#X connect 9 0 10 0;
#X connect 10 0 13 0;
#X connect 11 0 10 1;
#X connect 12 0 13 1;
#X connect 13 0 14 0;
#X connect 14 0 5 0;
#X connect 14 0 27 0;
#X connect 15 0 16 1;
#X connect 16 0 18 0;
#X connect 17 0 16 0;
#X connect 18 0 5 0;
#X connect 18 0 27 0;
#X connect 19 0 0 0;
#X connect 21 0 28 0;
#X connect 22 0 26 0;
#X connect 23 0 29 0;
#X connect 24 0 31 0;
#X connect 25 0 7 0;
#X connect 26 0 12 0;
#X connect 28 0 4 0;
#X connect 29 0 11 0;
#X connect 30 0 17 0;
#X connect 31 0 15 0;
#X connect 32 0 2 0;
#X connect 32 0 25 0;
#X connect 33 0 1 0;
#X restore 223 481 pd instrument;
#X msg 339 101 -1;
#X msg 298 70 stop;
#X obj 351 23 r initialize;
#X connect 0 0 23 0;
#X connect 2 0 3 0;
#X connect 3 0 4 0;
#X connect 4 0 5 0;
#X connect 4 0 3 1;
#X connect 5 0 11 0;
#X connect 6 0 12 0;
#X connect 9 0 14 0;
#X connect 10 0 15 0;
#X connect 11 0 6 0;
#X connect 12 4 7 0;
#X connect 12 5 8 0;
#X connect 12 6 9 0;
#X connect 12 7 10 0;
#X connect 13 0 24 0;
#X connect 14 0 24 0;
#X connect 15 0 24 0;
#X connect 16 0 24 0;
#X connect 17 0 24 0;
#X connect 18 0 13 0;
#X connect 19 0 14 0;
#X connect 20 0 15 0;
#X connect 21 0 16 0;
#X connect 22 0 17 0;
#X connect 23 0 2 0;
#X connect 24 0 1 0;
#X connect 25 0 3 1;
#X connect 26 0 23 0;
#X connect 27 0 26 0;
#X connect 27 0 25 0;
#X restore 498 935 pd pattern2-2;
#X obj 396 867 bng 15 250 50 0 empty empty empty 17 7 0 10 #fcfcfc
#000000 #000000;
#X obj 492 867 bng 15 250 50 0 empty empty empty 17 7 0 10 #fcfcfc
#000000 #000000;
#X obj 307 1130 dac~;
#N canvas 571 196 753 448 pattern1-1 0;
#X obj 185 58 inlet;
#X obj 215 517 outlet~;
#X obj 198 105 metro 300;
#X obj 201 133 bng 15 250 50 0 empty empty empty 17 7 0 10 #fcfcfc
#000000 #000000;
#X obj 198 166 f;
#X msg 339 101 -1;
#X obj 198 190 + 1;
#X floatatom 198 217 5 0 0 0 - - - 0;
#X floatatom 197 276 5 0 0 0 - - - 0;
#X obj 186 351 bng 15 250 50 0 empty empty empty 17 7 0 10 #fcfcfc
#000000 #000000;
#X obj 206 351 bng 15 250 50 0 empty empty empty 17 7 0 10 #fcfcfc
#000000 #000000;
#X obj 227 351 bng 15 250 50 0 empty empty empty 17 7 0 10 #fcfcfc
#000000 #000000;
#X obj 249 351 bng 15 250 50 0 empty empty empty 17 7 0 10 #fcfcfc
#000000 #000000;
#X obj 198 246 % 8;
#X obj 196 308 sel 0 1 2 3 4 5 6 7;
#X floatatom 158 418 5 0 0 0 - - - 0;
#X floatatom 214 420 5 0 0 0 - - - 0;
#X floatatom 283 421 5 0 0 0 - - - 0;
#X floatatom 342 422 5 0 0 0 - - - 0;
#X floatatom 396 424 5 0 0 0 - - - 0;
#X obj 75 348 r note2;
#X obj 291 349 r note3;
#X obj 355 352 r note4;
#X obj 420 347 r note5;
#X obj 479 349 r note6;
#N canvas 734 111 643 491 instrument 0;
#X obj 131 427 *~;
#X obj 123 512 outlet~;
#X obj 114 167 mtof;
#X obj 241 224 int;
#X floatatom 272 166 5 0 0 0 - - - 0;
#X obj 194 377 line~;
#X obj 225 263 pack 0 0;
#X obj 205 192 t i b;
#X msg 217 322 0 \, \$1 \$2;
#X obj 299 224 delay;
#X obj 316 252 int;
#X floatatom 340 184 5 0 0 0 - - - 0;
#X floatatom 395 190 5 0 0 0 - - - 0;
#X obj 319 279 pack 0 0;
#X msg 310 320 \$2 \$1;
#X floatatom 469 184 5 0 0 0 - - - 0;
#X obj 440 277 int;
#X obj 442 185 bng 15 250 50 0 empty empty empty 17 7 0 10 #fcfcfc
#000000 #000000;
#X msg 439 321 0 \$1;
#X obj 117 245 phasor~;
#X floatatom 51 221 5 0 0 0 - - - 0;
#X obj 258 75 loadbang;
#X obj 406 73 loadbang;
#X obj 328 73 loadbang;
#X obj 491 71 loadbang;
#X msg 213 144 1;
#X msg 405 105 0.2;
#X obj 292 413 print;
#X msg 257 107 50;
#X msg 327 105 100;
#X obj 409 35 delay 300;
#X msg 490 103 50;
#X obj 123 78 inlet;
#X obj 124 473 *~ 0.1;
#X connect 0 0 33 0;
#X connect 2 0 19 0;
#X connect 2 0 19 1;
#X connect 2 0 20 0;
#X connect 3 0 6 1;
#X connect 4 0 3 1;
#X connect 4 0 9 1;
#X connect 5 0 0 1;
#X connect 6 0 8 0;
#X connect 7 0 6 0;
#X connect 7 1 3 0;
#X connect 7 1 9 0;
#X connect 7 1 30 0;
#X connect 8 0 5 0;
#X connect 8 0 27 0;
#X connect 9 0 10 0;
#X connect 10 0 13 0;
#X connect 11 0 10 1;
#X connect 12 0 13 1;
#X connect 13 0 14 0;
#X connect 14 0 5 0;
#X connect 14 0 27 0;
#X connect 15 0 16 1;
#X connect 16 0 18 0;
#X connect 17 0 16 0;
#X connect 18 0 5 0;
#X connect 18 0 27 0;
#X connect 19 0 0 0;
#X connect 21 0 28 0;
#X connect 22 0 26 0;
#X connect 23 0 29 0;
#X connect 24 0 31 0;
#X connect 25 0 7 0;
#X connect 26 0 12 0;
#X connect 28 0 4 0;
#X connect 29 0 11 0;
#X connect 30 0 17 0;
#X connect 31 0 15 0;
#X connect 32 0 2 0;
#X connect 32 0 25 0;
#X connect 33 0 1 0;
#X restore 216 480 pd instrument;
#X msg 298 70 stop;
#X obj 351 23 r initialize;
#X connect 0 0 2 0;
#X connect 2 0 3 0;
#X connect 3 0 4 0;
#X connect 4 0 6 0;
#X connect 5 0 4 1;
#X connect 6 0 7 0;
#X connect 6 0 4 1;
#X connect 7 0 13 0;
#X connect 8 0 14 0;
#X connect 9 0 15 0;
#X connect 11 0 18 0;
#X connect 12 0 17 0;
#X connect 13 0 8 0;
#X connect 14 0 9 0;
#X connect 14 1 10 0;
#X connect 14 2 11 0;
#X connect 14 3 12 0;
#X connect 15 0 25 0;
#X connect 16 0 25 0;
#X connect 17 0 25 0;
#X connect 18 0 25 0;
#X connect 19 0 25 0;
#X connect 20 0 15 0;
#X connect 21 0 16 0;
#X connect 22 0 17 0;
#X connect 23 0 18 0;
#X connect 24 0 19 0;
#X connect 25 0 1 0;
#X connect 26 0 2 0;
#X connect 27 0 26 0;
#X connect 27 0 5 0;
#X restore 144 938 pd pattern1-1;
#X obj 1056 984 s pattern1;
#X obj 1174 986 s pattern2;
#X msg 1062 929 0;
#X msg 1106 928 1;
#X msg 1184 931 0;
#X msg 1228 931 1;
#X text 345 714 Main Melody;
#X obj 799 340 bng 15 250 50 0 empty empty empty 17 7 0 10 #fcfcfc
#000000 #000000;
#X floatatom 440 768 5 0 0 0 - - - 0;
#X floatatom 263 771 5 0 0 0 - - - 0;
#X obj 660 98 s initialize;
#X obj 661 58 bng 15 250 50 0 empty empty empty 17 7 0 10 #fcfcfc #000000
#000000;
#X obj 308 1096 *~ 1;
#X obj 1134 88 bng 15 250 50 0 empty empty empty 17 7 0 10 #fcfcfc
#000000 #000000;
#X obj 1133 138 s start;
#X text 1102 31 4 Start play music;
#X obj 762 499 r initialize;
#X obj 921 503 r start;
#X obj 923 533 bng 15 250 50 0 empty empty empty 17 7 0 10 #fcfcfc
#000000 #000000;
#X obj 761 526 bng 15 250 50 0 empty empty empty 17 7 0 10 #fcfcfc
#000000 #000000;
#X msg 792 533 stop;
#X obj 886 261 r chord;
#X obj 886 295 sel 0 1;
#X obj 1038 847 sel 0 1;
#X obj 1157 850 sel 0 1;
#X obj 1039 797 r p1;
#X obj 1160 800 r p2;
#X obj 818 188 s chord;
#X msg 806 144 0;
#X msg 858 143 1;
#X obj 932 191 s p1;
#X obj 1041 194 s p2;
#X msg 913 149 0;
#X msg 957 151 1;
#X msg 1024 149 0;
#X msg 1068 151 1;
#X obj 911 85 bng 15 250 50 0 empty empty empty 17 7 0 10 #fcfcfc #000000
#000000;
#X text 644 28 1 Initialize;
#X text 773 20 2 Choose chord;
#X text 908 25 3 Choose melody pattern;
#X obj 1018 59 bng 15 250 50 0 empty empty empty 17 7 0 10 #fcfcfc
#000000 #000000;
#X connect 0 0 1 0;
#X connect 1 0 2 0;
#X connect 3 0 4 0;
#X connect 10 0 11 0;
#X connect 12 0 13 0;
#X connect 13 0 14 0;
#X connect 14 0 15 0;
#X connect 14 0 15 1;
#X connect 14 0 10 0;
#X connect 17 0 15 0;
#X connect 17 0 15 1;
#X connect 17 0 10 0;
#X connect 18 0 15 0;
#X connect 18 0 15 1;
#X connect 18 0 10 0;
#X connect 19 0 15 0;
#X connect 19 0 15 1;
#X connect 19 0 10 0;
#X connect 20 0 15 0;
#X connect 20 0 15 1;
#X connect 20 0 10 0;
#X connect 21 0 10 0;
#X connect 21 0 15 0;
#X connect 21 0 15 1;
#X connect 22 0 10 0;
#X connect 22 0 15 0;
#X connect 22 0 15 1;
#X connect 23 0 24 0;
#X connect 24 0 28 0;
#X connect 25 0 5 0;
#X connect 26 0 6 0;
#X connect 27 0 7 0;
#X connect 28 0 29 0;
#X connect 29 0 0 0;
#X connect 30 0 8 0;
#X connect 31 0 9 0;
#X connect 33 0 34 0;
#X connect 40 0 35 0;
#X connect 41 0 37 0;
#X connect 42 0 33 0;
#X connect 42 0 40 0;
#X connect 42 0 43 0;
#X connect 42 0 41 0;
#X connect 42 0 44 0;
#X connect 42 0 45 0;
#X connect 43 0 36 0;
#X connect 44 0 38 0;
#X connect 45 0 39 0;
#X connect 48 0 70 0;
#X connect 49 0 69 0;
#X connect 50 0 52 0;
#X connect 50 1 53 0;
#X connect 51 0 57 0;
#X connect 51 1 58 0;
#X connect 52 0 60 0;
#X connect 53 0 54 0;
#X connect 54 0 73 0;
#X connect 55 0 73 0;
#X connect 56 0 73 0;
#X connect 57 0 55 0;
#X connect 58 0 56 0;
#X connect 60 0 73 0;
#X connect 63 0 61 0;
#X connect 64 0 61 0;
#X connect 65 0 62 0;
#X connect 66 0 62 0;
#X connect 68 0 3 0;
#X connect 68 0 25 0;
#X connect 68 0 26 0;
#X connect 68 0 27 0;
#X connect 68 0 30 0;
#X connect 68 0 31 0;
#X connect 69 0 51 0;
#X connect 70 0 50 0;
#X connect 72 0 71 0;
#X connect 73 0 59 0;
#X connect 73 0 59 1;
#X connect 74 0 75 0;
#X connect 77 0 80 0;
#X connect 78 0 79 0;
#X connect 79 0 23 0;
#X connect 80 0 81 0;
#X connect 81 0 23 0;
#X connect 82 0 83 0;
#X connect 83 0 68 0;
#X connect 83 1 42 0;
#X connect 84 0 63 0;
#X connect 84 1 64 0;
#X connect 85 0 65 0;
#X connect 85 1 66 0;
#X connect 86 0 84 0;
#X connect 87 0 85 0;
#X connect 89 0 88 0;
#X connect 90 0 88 0;
#X connect 93 0 91 0;
#X connect 94 0 91 0;
#X connect 95 0 92 0;
#X connect 96 0 92 0;
#X connect 97 0 90 0;
#X connect 97 0 94 0;
#X connect 97 0 95 0;
#X connect 101 0 97 0;
#X connect 101 0 74 0;
