#N canvas 3 33 1440 769 12;
#X obj 850 110 tgl 50 0 empty empty empty 17 7 0 10 #fcfcfc #000000
#000000 0 1;
#X obj 849 180 s toggle;
#X obj 966 92 loadbang;
#X obj 965 137 bng 50 250 50 0 empty empty empty 17 7 0 10 #fcfcfc
#000000 #000000;
#X obj 964 208 s randomize;
#X obj 788 440 r toggle;
#X floatatom 789 615 5 0 0 0 - - - 0;
#X obj 791 642 * 0.075;
#X obj 791 675 s LFO;
#X obj 622 281 loadbang;
#X msg 590 333 36;
#X obj 582 376 s note1;
#X obj 644 373 s note2;
#X obj 709 375 s note3;
#X obj 767 374 s note4;
#X obj 833 374 s note5;
#X obj 897 374 s note6;
#X obj 397 419 hip~ 600;
#X obj 383 464 delwrite~ delBuff 900;
#X obj 541 521 delread~ delBuff 900;
#X obj 541 565 *~ 0.9;
#X obj 535 604 lop~ 4000;
#X obj 285 455 dac~;
#X text 844 552 generate random number from -1 to 1;
#N canvas 510 152 531 570 note1 0;
#X obj 88 67 r LFO;
#X obj 88 157 +;
#X obj 105 93 r note1;
#X floatatom 105 124 5 0 0 0 - - - 0;
#X floatatom 88 189 5 0 0 0 - - - 0;
#X obj 89 217 mtof;
#X floatatom 88 243 5 0 0 0 - - - 0;
#X obj 88 272 phasor~;
#X obj 88 304 lop~ 6000;
#X obj 206 70 r toggle;
#X obj 209 154 metro 10000;
#X obj 283 23 r randomize;
#X obj 282 54 random 30000;
#X obj 282 83 + 10000;
#X floatatom 282 112 5 0 0 0 - - - 0;
#X obj 211 191 bng 15 250 50 0 empty empty empty 17 7 0 10 #fcfcfc
#000000 #000000;
#X msg 212 230 1 300;
#X obj 287 215 delay 2000;
#X msg 288 249 0 700;
#X obj 95 377 *~;
#X obj 95 414 *~ 0.1;
#X obj 373 105 r randomize;
#X obj 376 138 random 3000;
#X obj 376 166 + 1000;
#X obj 94 457 outlet~;
#X obj 217 290 line~ 0 3;
#X connect 0 0 1 0;
#X connect 1 0 4 0;
#X connect 2 0 3 0;
#X connect 3 0 1 1;
#X connect 4 0 5 0;
#X connect 5 0 6 0;
#X connect 6 0 7 0;
#X connect 7 0 8 0;
#X connect 8 0 19 0;
#X connect 9 0 10 0;
#X connect 10 0 15 0;
#X connect 11 0 12 0;
#X connect 12 0 13 0;
#X connect 13 0 14 0;
#X connect 14 0 10 1;
#X connect 15 0 16 0;
#X connect 15 0 17 0;
#X connect 16 0 25 0;
#X connect 17 0 18 0;
#X connect 18 0 25 0;
#X connect 19 0 20 0;
#X connect 20 0 24 0;
#X connect 21 0 22 0;
#X connect 22 0 23 0;
#X connect 23 0 17 1;
#X connect 25 0 19 1;
#X restore 83 123 pd note1;
#N canvas 515 129 562 500 note2 0;
#X obj 88 67 r LFO;
#X obj 88 157 +;
#X floatatom 105 124 5 0 0 0 - - - 0;
#X floatatom 88 189 5 0 0 0 - - - 0;
#X obj 89 217 mtof;
#X floatatom 88 243 5 0 0 0 - - - 0;
#X obj 88 272 phasor~;
#X obj 88 304 lop~ 6000;
#X obj 206 70 r toggle;
#X obj 209 154 metro 10000;
#X obj 283 23 r randomize;
#X obj 282 54 random 30000;
#X obj 282 83 + 10000;
#X floatatom 282 112 5 0 0 0 - - - 0;
#X obj 211 191 bng 15 250 50 0 empty empty empty 17 7 0 10 #fcfcfc
#000000 #000000;
#X msg 212 230 1 300;
#X obj 287 215 delay 2000;
#X msg 288 249 0 700;
#X obj 95 377 *~;
#X obj 95 414 *~ 0.1;
#X obj 373 105 r randomize;
#X obj 376 138 random 3000;
#X obj 376 166 + 1000;
#X obj 105 93 r note2;
#X obj 93 451 outlet~;
#X obj 217 290 line~ 0 3;
#X connect 0 0 1 0;
#X connect 1 0 3 0;
#X connect 2 0 1 1;
#X connect 3 0 4 0;
#X connect 4 0 5 0;
#X connect 5 0 6 0;
#X connect 6 0 7 0;
#X connect 7 0 18 0;
#X connect 8 0 9 0;
#X connect 9 0 14 0;
#X connect 10 0 11 0;
#X connect 11 0 12 0;
#X connect 12 0 13 0;
#X connect 13 0 9 1;
#X connect 14 0 15 0;
#X connect 14 0 16 0;
#X connect 15 0 25 0;
#X connect 16 0 17 0;
#X connect 17 0 25 0;
#X connect 18 0 19 0;
#X connect 19 0 24 0;
#X connect 20 0 21 0;
#X connect 21 0 22 0;
#X connect 22 0 16 1;
#X connect 23 0 2 0;
#X connect 25 0 18 1;
#X restore 173 121 pd note2;
#N canvas 631 206 499 510 note3 0;
#X obj 89 67 r LFO;
#X obj 89 157 +;
#X floatatom 106 124 5 0 0 0 - - - 0;
#X floatatom 89 189 5 0 0 0 - - - 0;
#X obj 90 217 mtof;
#X floatatom 89 243 5 0 0 0 - - - 0;
#X obj 89 272 phasor~;
#X obj 89 304 lop~ 6000;
#X obj 207 70 r toggle;
#X obj 210 154 metro 10000;
#X obj 284 23 r randomize;
#X obj 283 54 random 30000;
#X obj 283 83 + 10000;
#X floatatom 283 112 5 0 0 0 - - - 0;
#X obj 212 191 bng 15 250 50 0 empty empty empty 17 7 0 10 #fcfcfc
#000000 #000000;
#X msg 213 230 1 300;
#X obj 288 215 delay 2000;
#X msg 289 249 0 700;
#X obj 96 377 *~;
#X obj 96 414 *~ 0.1;
#X obj 374 105 r randomize;
#X obj 377 138 random 3000;
#X obj 377 166 + 1000;
#X obj 106 93 r note3;
#X obj 94 451 outlet~;
#X obj 218 290 line~ 0 3;
#X connect 0 0 1 0;
#X connect 1 0 3 0;
#X connect 2 0 1 1;
#X connect 3 0 4 0;
#X connect 4 0 5 0;
#X connect 5 0 6 0;
#X connect 6 0 7 0;
#X connect 7 0 18 0;
#X connect 8 0 9 0;
#X connect 9 0 14 0;
#X connect 10 0 11 0;
#X connect 11 0 12 0;
#X connect 12 0 13 0;
#X connect 13 0 9 1;
#X connect 14 0 15 0;
#X connect 14 0 16 0;
#X connect 15 0 25 0;
#X connect 16 0 17 0;
#X connect 17 0 25 0;
#X connect 18 0 19 0;
#X connect 19 0 24 0;
#X connect 20 0 21 0;
#X connect 21 0 22 0;
#X connect 22 0 16 1;
#X connect 23 0 2 0;
#X connect 25 0 18 1;
#X restore 261 120 pd note3;
#N canvas 580 262 493 510 note4 0;
#X obj 89 67 r LFO;
#X obj 89 157 +;
#X floatatom 106 124 5 0 0 0 - - - 0;
#X floatatom 89 189 5 0 0 0 - - - 0;
#X obj 90 217 mtof;
#X floatatom 89 243 5 0 0 0 - - - 0;
#X obj 89 272 phasor~;
#X obj 89 304 lop~ 6000;
#X obj 207 70 r toggle;
#X obj 210 154 metro 10000;
#X obj 284 23 r randomize;
#X obj 283 54 random 30000;
#X obj 283 83 + 10000;
#X floatatom 283 112 5 0 0 0 - - - 0;
#X obj 212 191 bng 15 250 50 0 empty empty empty 17 7 0 10 #fcfcfc
#000000 #000000;
#X msg 213 230 1 300;
#X obj 288 215 delay 2000;
#X msg 289 249 0 700;
#X obj 96 377 *~;
#X obj 96 414 *~ 0.1;
#X obj 374 105 r randomize;
#X obj 377 138 random 3000;
#X obj 377 166 + 1000;
#X obj 94 451 outlet~;
#X obj 106 93 r note4;
#X obj 218 290 line~ 0 3;
#X connect 0 0 1 0;
#X connect 1 0 3 0;
#X connect 2 0 1 1;
#X connect 3 0 4 0;
#X connect 4 0 5 0;
#X connect 5 0 6 0;
#X connect 6 0 7 0;
#X connect 7 0 18 0;
#X connect 8 0 9 0;
#X connect 9 0 14 0;
#X connect 10 0 11 0;
#X connect 11 0 12 0;
#X connect 12 0 13 0;
#X connect 13 0 9 1;
#X connect 14 0 15 0;
#X connect 14 0 16 0;
#X connect 15 0 25 0;
#X connect 16 0 17 0;
#X connect 17 0 25 0;
#X connect 18 0 19 0;
#X connect 19 0 23 0;
#X connect 20 0 21 0;
#X connect 21 0 22 0;
#X connect 22 0 16 1;
#X connect 24 0 2 0;
#X connect 25 0 18 1;
#X restore 344 123 pd note4;
#N canvas 539 148 485 501 note5 0;
#X obj 89 67 r LFO;
#X obj 89 157 +;
#X floatatom 106 124 5 0 0 0 - - - 0;
#X floatatom 89 189 5 0 0 0 - - - 0;
#X obj 90 217 mtof;
#X floatatom 89 243 5 0 0 0 - - - 0;
#X obj 89 272 phasor~;
#X obj 89 304 lop~ 6000;
#X obj 207 70 r toggle;
#X obj 210 154 metro 10000;
#X obj 284 23 r randomize;
#X obj 283 54 random 30000;
#X obj 283 83 + 10000;
#X floatatom 283 112 5 0 0 0 - - - 0;
#X obj 212 191 bng 15 250 50 0 empty empty empty 17 7 0 10 #fcfcfc
#000000 #000000;
#X msg 213 230 1 300;
#X obj 288 215 delay 2000;
#X msg 289 249 0 700;
#X obj 96 377 *~;
#X obj 96 414 *~ 0.1;
#X obj 374 105 r randomize;
#X obj 377 138 random 3000;
#X obj 377 166 + 1000;
#X obj 94 451 outlet~;
#X obj 106 93 r note5;
#X obj 218 290 line~ 0 3;
#X connect 0 0 1 0;
#X connect 1 0 3 0;
#X connect 2 0 1 1;
#X connect 3 0 4 0;
#X connect 4 0 5 0;
#X connect 5 0 6 0;
#X connect 6 0 7 0;
#X connect 7 0 18 0;
#X connect 8 0 9 0;
#X connect 9 0 14 0;
#X connect 10 0 11 0;
#X connect 11 0 12 0;
#X connect 12 0 13 0;
#X connect 13 0 9 1;
#X connect 14 0 15 0;
#X connect 14 0 16 0;
#X connect 15 0 25 0;
#X connect 16 0 17 0;
#X connect 17 0 25 0;
#X connect 18 0 19 0;
#X connect 19 0 23 0;
#X connect 20 0 21 0;
#X connect 21 0 22 0;
#X connect 22 0 16 1;
#X connect 24 0 2 0;
#X connect 25 0 18 1;
#X restore 434 120 pd note5;
#N canvas 326 76 478 515 note6 0;
#X obj 89 67 r LFO;
#X obj 89 157 +;
#X floatatom 106 124 5 0 0 0 - - - 0;
#X floatatom 89 189 5 0 0 0 - - - 0;
#X obj 90 217 mtof;
#X floatatom 89 243 5 0 0 0 - - - 0;
#X obj 89 272 phasor~;
#X obj 89 304 lop~ 6000;
#X obj 207 70 r toggle;
#X obj 210 154 metro 10000;
#X obj 284 23 r randomize;
#X obj 283 54 random 30000;
#X obj 283 83 + 10000;
#X floatatom 283 112 5 0 0 0 - - - 0;
#X obj 212 191 bng 15 250 50 0 empty empty empty 17 7 0 10 #fcfcfc
#000000 #000000;
#X msg 213 230 1 300;
#X obj 288 215 delay 2000;
#X msg 289 249 0 700;
#X obj 96 377 *~;
#X obj 96 414 *~ 0.1;
#X obj 374 105 r randomize;
#X obj 377 138 random 3000;
#X obj 377 166 + 1000;
#X obj 94 451 outlet~;
#X obj 106 93 r note6;
#X obj 218 290 line~ 0 3;
#X connect 0 0 1 0;
#X connect 1 0 3 0;
#X connect 2 0 1 1;
#X connect 3 0 4 0;
#X connect 4 0 5 0;
#X connect 5 0 6 0;
#X connect 6 0 7 0;
#X connect 7 0 18 0;
#X connect 8 0 9 0;
#X connect 9 0 14 0;
#X connect 10 0 11 0;
#X connect 11 0 12 0;
#X connect 12 0 13 0;
#X connect 13 0 9 1;
#X connect 14 0 15 0;
#X connect 14 0 16 0;
#X connect 15 0 25 0;
#X connect 16 0 17 0;
#X connect 17 0 25 0;
#X connect 18 0 19 0;
#X connect 19 0 23 0;
#X connect 20 0 21 0;
#X connect 21 0 22 0;
#X connect 22 0 16 1;
#X connect 24 0 2 0;
#X connect 25 0 18 1;
#X restore 526 124 pd note6;
#X obj 788 474 metro 3;
#X obj 789 515 random 2000;
#X msg 643 330 60;
#X msg 710 330 64;
#X msg 769 330 67;
#X obj 791 544 - 1000;
#X obj 789 575 / 1000;
#X msg 834 327 72;
#X msg 899 326 76;
#X text 606 247 Default chord: C major (warm);
#X msg 1015 414 36;
#X obj 1007 457 s note1;
#X obj 1069 454 s note2;
#X obj 1134 456 s note3;
#X obj 1192 455 s note4;
#X obj 1258 455 s note5;
#X obj 1322 455 s note6;
#X msg 1073 410 60;
#X msg 1194 411 67;
#X obj 1142 334 bng 15 250 50 0 empty empty empty 17 7 0 10 #fcfcfc
#000000 #000000;
#X msg 1135 411 63;
#X msg 1259 408 70;
#X msg 1324 407 74;
#X text 1043 296 Default chord: Cminor9 (cold);
#X connect 0 0 1 0;
#X connect 2 0 3 0;
#X connect 3 0 4 0;
#X connect 5 0 30 0;
#X connect 6 0 7 0;
#X connect 7 0 8 0;
#X connect 9 0 10 0;
#X connect 9 0 32 0;
#X connect 9 0 33 0;
#X connect 9 0 38 0;
#X connect 9 0 37 0;
#X connect 9 0 34 0;
#X connect 10 0 11 0;
#X connect 17 0 18 0;
#X connect 19 0 20 0;
#X connect 20 0 21 0;
#X connect 21 0 22 0;
#X connect 21 0 22 1;
#X connect 21 0 17 0;
#X connect 24 0 22 0;
#X connect 24 0 22 1;
#X connect 24 0 17 0;
#X connect 25 0 22 0;
#X connect 25 0 22 1;
#X connect 25 0 17 0;
#X connect 26 0 22 0;
#X connect 26 0 22 1;
#X connect 26 0 17 0;
#X connect 27 0 22 0;
#X connect 27 0 22 1;
#X connect 27 0 17 0;
#X connect 28 0 17 0;
#X connect 28 0 22 0;
#X connect 28 0 22 1;
#X connect 29 0 17 0;
#X connect 29 0 22 0;
#X connect 29 0 22 1;
#X connect 30 0 31 0;
#X connect 31 0 35 0;
#X connect 32 0 12 0;
#X connect 33 0 13 0;
#X connect 34 0 14 0;
#X connect 35 0 36 0;
#X connect 36 0 6 0;
#X connect 37 0 15 0;
#X connect 38 0 16 0;
#X connect 40 0 41 0;
#X connect 47 0 42 0;
#X connect 48 0 44 0;
#X connect 49 0 40 0;
#X connect 49 0 47 0;
#X connect 49 0 50 0;
#X connect 49 0 48 0;
#X connect 49 0 51 0;
#X connect 49 0 52 0;
#X connect 50 0 43 0;
#X connect 51 0 45 0;
#X connect 52 0 46 0;
