#N canvas 650 117 746 588 12;
#N canvas 65 152 708 560 note 1;
#X obj 131 427 *~;
#X obj 123 512 outlet~;
#X obj 114 167 mtof;
#X obj 241 224 int;
#X floatatom 272 166 5 0 0 0 - - - 0;
#X obj 194 377 line~;
#X obj 225 263 pack 0 0;
#X obj 205 192 t i b;
#X msg 217 322 0 \, \$1 \$2;
#X obj 299 224 delay;
#X obj 316 252 int;
#X floatatom 340 184 5 0 0 0 - - - 0;
#X floatatom 395 190 5 0 0 0 - - - 0;
#X obj 319 279 pack 0 0;
#X msg 310 320 \$2 \$1;
#X floatatom 469 184 5 0 0 0 - - - 0;
#X obj 440 277 int;
#X obj 442 185 bng 15 250 50 0 empty empty empty 17 7 0 10 #fcfcfc #000000 #000000;
#X msg 439 321 0 \$1;
#X obj 117 245 phasor~;
#X obj 114 76 r note;
#X floatatom 51 221 5 0 0 0 - - - 0;
#X obj 258 75 loadbang;
#X obj 406 73 loadbang;
#X obj 328 73 loadbang;
#X obj 491 71 loadbang;
#X msg 213 144 1;
#X msg 405 105 0.2;
#X obj 292 413 print;
#X msg 257 107 50;
#X msg 327 105 100;
#X obj 409 35 delay 300;
#X msg 490 103 50;
#X connect 0 0 1 0;
#X connect 2 0 19 0;
#X connect 2 0 19 1;
#X connect 2 0 21 0;
#X connect 3 0 6 1;
#X connect 4 0 3 1;
#X connect 4 0 9 1;
#X connect 5 0 0 1;
#X connect 6 0 8 0;
#X connect 7 0 6 0;
#X connect 7 1 3 0;
#X connect 7 1 9 0;
#X connect 7 1 31 0;
#X connect 8 0 5 0;
#X connect 8 0 28 0;
#X connect 9 0 10 0;
#X connect 10 0 13 0;
#X connect 11 0 10 1;
#X connect 12 0 13 1;
#X connect 13 0 14 0;
#X connect 14 0 5 0;
#X connect 14 0 28 0;
#X connect 15 0 16 1;
#X connect 16 0 18 0;
#X connect 17 0 16 0;
#X connect 18 0 5 0;
#X connect 18 0 28 0;
#X connect 19 0 0 0;
#X connect 20 0 2 0;
#X connect 20 0 26 0;
#X connect 22 0 29 0;
#X connect 23 0 27 0;
#X connect 24 0 30 0;
#X connect 25 0 32 0;
#X connect 26 0 7 0;
#X connect 27 0 12 0;
#X connect 29 0 4 0;
#X connect 30 0 11 0;
#X connect 31 0 17 0;
#X connect 32 0 15 0;
#X restore 379 378 pd note;
#X obj 383 304 s note;
#X obj 384 444 dac~;
#X msg 320 217 60;
#X msg 387 216 62;
#X msg 462 221 64;
#X connect 0 0 2 0;
#X connect 0 0 2 1;
#X connect 3 0 1 0;
#X connect 4 0 1 0;
#X connect 5 0 1 0;
